<svg fill="none" height="35" viewBox="0 0 20 35" width="115" xmlns="http://www.w3.org/2000/svg" xmlns:xlink="http://www.w3.org/1999/xlink">
<clipPath id="a"><path d="m13 9h89v17.4h-89z"/></clipPath><g transform="translate(-30, -15) scale(2)" clip-path="url(#a)" fill="#fff"><path d="m21.1 13.3-3 7-2.9-7c-.2-.6-.6-.9-1.1-.9-.1 0-.3 0-.5.1s-.4.3-.5.5c-.1.3-.1.7.1 1.1l3.8 8.3c.3.6.6.8 1.1.8.6 0 .8-.3 1.1-.9l3.8-8.4c.2-.4.2-.7.1-1-.1-.2-.3-.3-.5-.4-.7-.3-1.2 0-1.5.8z"/><path d="m21.5 24.6h-6.9c-.5 0-1.1.2-1.1.8 0 .8.9.8 1.1.8h6.9c.5 0 1.1-.2 1.1-.8s-.6-.8-1.1-.8z"/><path d="m18.1 9.8c.3 0 .6.3.6.6s-.3.6-.6.6-.7-.3-.7-.6c0-.4.3-.6.7-.6zm0-.8c-.8 0-1.4.6-1.4 1.4s.6 1.4 1.4 1.4 1.4-.6 1.4-1.4c-.1-.8-.7-1.4-1.4-1.4z"/></g></svg>