<svg fill="none" height="35" viewBox="0 0 115 35" width="115" xmlns="http://www.w3.org/2000/svg" xmlns:xlink="http://www.w3.org/1999/xlink"><clipPath id="a"><path d="m13 9h89v17.4h-89z"/></clipPath><g clip-path="url(#a)" fill="#fff"><path d="m29.3 11.2c-.2 0-.4-.1-.4-.4 0-.2.2-.4.4-.4s.4.1.4.4-.1.4-.4.4zm-.2 6.1v-5h.6v5z"/><path d="m33.7 12.2c1.1 0 2 .8 2 2v3.1h-.6v-3c0-1-.6-1.5-1.5-1.5s-1.5.6-1.8 1.1v3.4h-.6v-5h.5v.9c.4-.4 1.1-1 2-1z"/><path d="m38.2 10.6v1.7h2.1v.5h-2.1v2.9c0 .8.4 1.1 1.1 1.1.4 0 .8-.1 1.1-.2v.5c-.3.1-.8.2-1.2.2-.9 0-1.6-.5-1.6-1.5v-3h-.9v-.5h.9v-1.6z"/><path d="m43.5 12.2c1.9 0 2.5 1.6 2.3 2.9h-4.1c.1 1.3 1.1 1.8 2.2 1.8.6 0 1.2-.2 1.6-.4v.5c-.4.2-1.1.4-1.7.4-1.4 0-2.7-.8-2.7-2.6-.1-1.7 1.2-2.6 2.4-2.6zm0 .6c-1 0-1.8.6-1.9 1.8h3.6c.1-.7-.3-1.8-1.7-1.8z"/><path d="m49.7 12.2v.6c-1.1-.1-1.9.6-2.1 1.4v3h-.6v-5h.5v1.1c.4-.6 1.2-1.1 2.2-1.1z"/><path d="m55 16.8c.1 0 .3 0 .4-.1v.5c-.2.1-.4.1-.5.1-.4 0-.8-.2-.9-.8-.5.5-1.2.8-2 .8-.9 0-1.7-.5-1.7-1.5 0-1.2 1.1-1.6 2.2-1.6.5 0 1.1.1 1.6.2v-.2c0-.9-.6-1.4-1.6-1.4-.8 0-1.4.2-1.8.4v-.7c.4-.1 1-.3 1.8-.3 1.3 0 2.1.7 2.1 2.1v2.1c-.1.3.1.4.4.4zm-2.9.1c.7 0 1.5-.3 1.9-1v-.9c-.4-.1-1-.2-1.5-.2-.8 0-1.7.3-1.7 1.1 0 .7.6 1 1.3 1z"/><path d="m58.6 12.2c.5 0 1.1.1 1.5.4v.6c-.4-.3-.9-.4-1.4-.4-1.1 0-2.2.6-2.2 2.1 0 1.4 1 2 2.1 2 .5 0 1.1-.1 1.5-.4v.5c-.5.2-1 .4-1.6.4-1.3 0-2.6-.8-2.6-2.6s1.4-2.6 2.7-2.6z"/><path d="m62.2 10.6v1.7h2.1v.5h-2.1v2.9c0 .8.4 1.1 1.1 1.1.4 0 .8-.1 1.1-.2v.5c-.3.1-.8.2-1.2.2-.9 0-1.6-.5-1.6-1.5v-3h-.9v-.5h.9v-1.6z"/><path d="m65.7 11.2c-.2 0-.4-.1-.4-.4 0-.2.2-.4.4-.4s.4.1.4.4-.2.4-.4.4zm-.3 6.1v-5h.6v5z"/><path d="m72.1 12.3-2.2 5h-.6l-2.2-5h.6l1.9 4.3 1.9-4.3z"/><path d="m75.2 12.2c1.9 0 2.5 1.6 2.3 2.9h-4.1c.1 1.3 1.1 1.8 2.2 1.8.6 0 1.2-.2 1.6-.4v.5c-.4.2-1.1.4-1.7.4-1.4 0-2.7-.8-2.7-2.6 0-1.7 1.2-2.6 2.4-2.6zm.1.6c-1 0-1.8.6-1.9 1.8h3.6c.1-.7-.3-1.8-1.7-1.8z"/><path d="m33.5 21.3-2.2 5h-.6l-2.2-5h.5l1.9 4.3 1.9-4.3z"/><path d="m34.8 20.2c-.2 0-.4-.1-.4-.4 0-.2.2-.4.4-.4s.4.1.4.4-.2.4-.4.4zm-.3 6.1v-5h.6v5z"/><path d="m38.3 21.2c.7 0 1.3.2 1.7.4v.6c-.4-.3-1.1-.5-1.7-.5s-1.3.2-1.3.8c0 1.3 3.3.7 3.3 2.5 0 1-.9 1.3-2 1.3-.7 0-1.5-.2-1.9-.5v-.6c.5.3 1.2.5 1.9.5.8 0 1.4-.2 1.4-.8 0-1.3-3.3-.7-3.3-2.5.1-.8 1-1.2 1.9-1.2z"/><path d="m45.9 21.3v5h-.5v-.9c-.3.5-1 1-1.9 1-1.2 0-2-.8-2-2v-3.1h.5v3c0 1 .6 1.5 1.5 1.5s1.5-.6 1.8-1.1v-3.4z"/><path d="m51.8 25.8c.1 0 .3 0 .4-.1v.5c-.2.1-.4.1-.5.1-.4 0-.8-.2-.9-.8-.5.5-1.2.8-2 .8-.9 0-1.7-.5-1.7-1.5 0-1.2 1.1-1.6 2.2-1.6.5 0 1.1.1 1.6.2v-.3c0-.9-.6-1.4-1.6-1.4-.8 0-1.4.2-1.8.4v-.6c.4-.1 1-.3 1.8-.3 1.3 0 2.1.7 2.1 2.1v2.1c0 .3.2.4.4.4zm-2.9.1c.7 0 1.5-.3 1.9-1v-.9c-.4-.1-1-.2-1.5-.2-.8 0-1.7.3-1.7 1.1.1.7.7 1 1.3 1z"/><path d="m53.7 18.7v7.5h-.6v-7.5z"/><path d="m55.7 20.2c-.2 0-.4-.1-.4-.4 0-.2.2-.4.4-.4s.4.1.4.4-.2.4-.4.4zm-.3 6.1v-5h.6v5z"/><path d="m61 21.3v.5l-3.1 3.9h3.3v.5h-4v-.5l3.2-3.9h-3v-.5z"/><path d="m66.7 25.8c.1 0 .3 0 .4-.1v.5c-.2.1-.4.1-.5.1-.4 0-.8-.2-.9-.8-.5.5-1.2.8-2 .8-.9 0-1.7-.5-1.7-1.5 0-1.2 1.1-1.6 2.2-1.6.5 0 1.1.1 1.6.2v-.3c0-.9-.6-1.4-1.6-1.4-.8 0-1.4.2-1.8.4v-.6c.4-.1 1-.3 1.8-.3 1.3 0 2.1.7 2.1 2.1v2.1c-.1.3.1.4.4.4zm-3 .1c.7 0 1.5-.3 1.9-1v-.9c-.4-.1-1-.2-1.5-.2-.8 0-1.7.3-1.7 1.1.1.7.7 1 1.3 1z"/><path d="m68.8 19.6v1.7h2.1v.5h-2.1v2.9c0 .8.4 1.1 1.1 1.1.4 0 .8-.1 1.1-.2v.5c-.3.1-.8.2-1.2.2-.9 0-1.6-.5-1.6-1.5v-3h-.9v-.5h.9v-1.6z"/><path d="m72.3 20.2c-.2 0-.4-.1-.4-.4 0-.2.2-.4.4-.4s.4.1.4.4-.2.4-.4.4zm-.3 6.1v-5h.6v5z"/><path d="m76.5 21.2c1.4 0 2.6.9 2.6 2.6s-1.3 2.6-2.6 2.6-2.6-.9-2.6-2.6 1.3-2.6 2.6-2.6zm0 .6c-1.1 0-2 .7-2 2s.9 2 2 2 2-.7 2-2-.9-2-2-2z"/><path d="m82.8 21.2c1.1 0 2 .8 2 2v3.1h-.6v-3c0-1-.6-1.5-1.5-1.5s-1.5.6-1.8 1.1v3.4h-.6v-5h.5v.9c.4-.5 1.1-1 2-1z"/><path d="m89.6 18.7v7.5h-.6v-7.5z"/><path d="m95.6 25.8c.1 0 .3 0 .4-.1v.5c-.2.1-.4.1-.5.1-.4 0-.8-.2-.9-.8-.5.5-1.2.8-2 .8-.9 0-1.7-.5-1.7-1.5 0-1.2 1.1-1.6 2.2-1.6.5 0 1.1.1 1.6.2v-.3c0-.9-.6-1.4-1.6-1.4-.8 0-1.4.2-1.8.4v-.6c.4-.1 1-.3 1.8-.3 1.3 0 2.1.7 2.1 2.1v2.1c0 .3.2.4.4.4zm-2.9.1c.7 0 1.5-.3 1.9-1v-.9c-.4-.1-1-.2-1.5-.2-.8 0-1.7.3-1.7 1.1.1.7.7 1 1.3 1z"/><path d="m97.5 19v3.2c.4-.6 1.1-1.1 2.1-1.1 1.4 0 2.5 1.1 2.5 2.6s-1.1 2.6-2.5 2.6c-1 0-1.7-.5-2.1-1.1v1h-.5v-7.2zm1.9 2.7c-1 0-1.7.6-2 1.4v1.3c.3.7 1 1.4 2 1.4 1.1 0 1.9-.8 1.9-2.1.1-1.2-.8-2-1.9-2z"/><path d="m21.1 13.3-3 7-2.9-7c-.2-.6-.6-.9-1.1-.9-.1 0-.3 0-.5.1s-.4.3-.5.5c-.1.3-.1.7.1 1.1l3.8 8.3c.3.6.6.8 1.1.8.6 0 .8-.3 1.1-.9l3.8-8.4c.2-.4.2-.7.1-1-.1-.2-.3-.3-.5-.4-.7-.3-1.2 0-1.5.8z"/><path d="m21.5 24.6h-6.9c-.5 0-1.1.2-1.1.8 0 .8.9.8 1.1.8h6.9c.5 0 1.1-.2 1.1-.8s-.6-.8-1.1-.8z"/><path d="m18.1 9.8c.3 0 .6.3.6.6s-.3.6-.6.6-.7-.3-.7-.6c0-.4.3-.6.7-.6zm0-.8c-.8 0-1.4.6-1.4 1.4s.6 1.4 1.4 1.4 1.4-.6 1.4-1.4c-.1-.8-.7-1.4-1.4-1.4z"/></g></svg>